<svg width="27" height="29" viewBox="0 0 27 29" fill="none" xmlns="http://www.w3.org/2000/svg">
<g filter="url(#filter0_d_202_47)">
<mask id="mask0_202_47" style="mask-type:alpha" maskUnits="userSpaceOnUse" x="1" y="0" width="24" height="24">
<rect x="1" width="24" height="24" fill="#D9D9D9"/>
</mask>
<g mask="url(#mask0_202_47)">
<path d="M6 19H7.4L16.025 10.375L14.625 8.975L6 17.6V19ZM20.3 8.925L16.05 4.725L17.45 3.325C17.8333 2.94167 18.3042 2.75 18.8625 2.75C19.4208 2.75 19.8917 2.94167 20.275 3.325L21.675 4.725C22.0583 5.10833 22.2583 5.57083 22.275 6.1125C22.2917 6.65417 22.1083 7.11667 21.725 7.5L20.3 8.925ZM18.85 10.4L8.25 21H4V16.75L14.6 6.15L18.85 10.4Z" fill="#203562"/>
</g>
</g>
<defs>
<filter id="filter0_d_202_47" x="-3" y="0" width="32" height="32" filterUnits="userSpaceOnUse" color-interpolation-filters="sRGB">
<feFlood flood-opacity="0" result="BackgroundImageFix"/>
<feColorMatrix in="SourceAlpha" type="matrix" values="0 0 0 0 0 0 0 0 0 0 0 0 0 0 0 0 0 0 127 0" result="hardAlpha"/>
<feOffset dy="4"/>
<feGaussianBlur stdDeviation="2"/>
<feComposite in2="hardAlpha" operator="out"/>
<feColorMatrix type="matrix" values="0 0 0 0 0 0 0 0 0 0 0 0 0 0 0 0 0 0 0.25 0"/>
<feBlend mode="normal" in2="BackgroundImageFix" result="effect1_dropShadow_202_47"/>
<feBlend mode="normal" in="SourceGraphic" in2="effect1_dropShadow_202_47" result="shape"/>
</filter>
</defs>
</svg>
